<svg xmlns="http://www.w3.org/2000/svg" xml:space="preserve" width="100" height="100" data-id="lg_eYi8RXHT2YnoTCOaqk" data-version="1" viewBox="0 0 2000 559"><g data-padding="20"><g transform="translate(10 21.015)scale(.92481)"><rect width="266.372" height="559.35" x="803.702" y="-280.175" fill="none" rx="0" ry="0" transform="translate(133.6 280)"/><path fill="#eccbc4" d="M1104.868 439.83q.72 0-7.98-.85-8.7-.84-22.6-2.41-13.9-1.58-29.61-3.39t-29.61-3.38q-13.89-1.57-22.47-2.66t-8.1-1.09q-10.88-19.09-13.78-34.68t-1.21-27.44q1.7-11.84 5.08-19.57 3.38-7.74 4.83-11.36 29.49 2.17 56.92 14.74 27.44 12.57 50.88 28.52l14.5-6.04q2.18-10.88 3.15-22.72.96-11.84-2.18-22.24-11.6-3.14-30.94-11.72-19.33-8.58-40.36-20.18t-37.71-23.93q-16.67-12.33-22.72-22.72-2.17-8.22-3.74-22.72t-2.66-31.3-2.06-32.39q-.96-15.59-2.17-25.98 17.4-28.04 39.52-45.08 22.11-17.04 49.18-28.64 8.95 2.66 19.94 7.98 11 5.32 20.91 10.63 9.91 5.32 14.74 7.74l77.35-3.63q5.8 22.96 3.62 42.42-2.17 19.46-8.58 34.32-6.4 14.87-13.89 24.05-7.5 9.19-12.57 11.6-10.88-2.41-27.32-9.3-16.43-6.89-33.95-17.89-17.53-11-32.27-25.5h-3.14l-9.19 50.76q9.91 5.56 28.52 18.13 18.61 12.56 40.25 28.88 21.63 16.31 40.72 33.72 19.1 17.4 29.49 32.87 1.21 11.6-1.81 28.88t-7.13 33.48q-4.11 16.19-6.77 24.65-13.78 13.78-28.88 25.62-15.11 11.84-34.2 19.82"/></g><path fill="transparent" stroke="transparent" d="M867 0h266v559H867z"/></g></svg>